<?xml version="1.0" encoding="UTF-8"?>
<svg width="21px" height="21px" viewBox="0 0 21 21" version="1.1" xmlns="http://www.w3.org/2000/svg" xmlns:xlink="http://www.w3.org/1999/xlink">
    <title>Group 16</title>
    <g id="Page-1" stroke="none" stroke-width="1" fill="none" fill-rule="evenodd">
        <g id="Group-16" transform="translate(0.7985, 0.7887)">
            <path d="M11.8587453,20 C11.6533319,18.3777715 12.2067879,16.9470131 13.033901,15.5936673 C13.926983,14.1324477 17.7004022,10.6880463 17.9367527,9.79665659 C18.7240571,6.82612092 14.8300741,6.76359538 13.1644739,5.80487046 C12.6803989,5.52636842 12.2986894,4.88027119 11.9249416,4.76896199 C11.5248063,4.64963669 8.47363247,4.48862771 7.94269683,4.55115325 C1.30827609,5.33329506 3.97796791,11.4555301 1.74799271,15.6626057 C-3.52951667,7.81370379 3.98729454,-2.27214657 13.0418628,0.455615943 C22.9155824,3.43004514 22.0661764,18.4141874 11.8587453,20" id="Fill-4" fill="#F0F4F8"></path>
            <path d="M9.13650384,5.1972012 C10.9275111,6.82397006 8.45391798,9.88084008 6.44548252,8.21077669 C4.45948381,6.5593668 7.15166166,3.39449075 9.13650384,5.1972012 Z M8.67992769,7.80417659 C9.9574342,6.76234444 8.66674321,4.78737704 7.13618725,5.47018702 C5.35882711,6.26307563 7.08414326,9.10554562 8.67992769,7.80417659 Z" id="Combined-Shape" fill="#E7E9EC"></path>
            <path d="M12.2122806,11.3141653 L14.9831027,10.6285918 L12.6741999,11.5435342 C12.4472881,11.5241898 12.2932379,11.4477335 12.2122806,11.3141653" id="Fill-8" fill="#A6A6A9"></path>
            <polygon id="Fill-10" fill="#D9DBDE" points="12.2122806 11.3141653 12.6741999 11.5435342 9.90407176 11.3111715"></polygon>
            <path d="M15.214178,9.02026922 C15.0716932,9.16166731 14.2954281,8.91456609 14.2958905,8.67759764 C14.2977412,7.78959924 15.8114118,8.42750265 15.214178,9.02026922" id="Fill-12" fill="#D1D3D5"></path>
        </g>
    </g>
</svg>