<?xml version="1.0" encoding="UTF-8"?>
<svg width="22px" height="19px" viewBox="0 0 22 19" version="1.1" xmlns="http://www.w3.org/2000/svg" xmlns:xlink="http://www.w3.org/1999/xlink">
    <title>ic-tele</title>
    <g id="Page-1" stroke="none" stroke-width="1" fill="none" fill-rule="evenodd">
        <path d="M19.5449739,0.78626753 C20.6853112,0.306118341 21.9078274,1.2703894 21.7064681,2.491218 L19.328206,16.9110079 C19.0988598,18.301341 17.5718413,19.0991264 16.2962862,18.4062658 C15.2289036,17.8265062 13.6452824,16.9341731 12.2180526,16.0015891 C11.5053811,15.5358737 9.32313255,14.0426073 9.59136705,12.9796272 C9.82071331,12.0707326 13.4893101,8.65580026 15.5857111,6.62491185 C16.4091774,5.82715792 16.0341312,5.36629562 15.0616108,6.10081162 C12.6490726,7.92289849 8.77578322,10.6931875 7.49492418,11.472839 C6.36482781,12.1606682 5.7747748,12.2780666 5.0709606,12.1606682 C3.78573055,11.9465208 2.59416771,11.6148702 1.62135382,11.2116275 C0.306522594,10.6665632 0.370567643,8.85967525 1.62046285,8.33347862 L19.5449739,0.78626753 Z" id="ic-tele" fill="#FFFFFF" fill-rule="nonzero"></path>
    </g>
</svg>