<?xml version="1.0" encoding="UTF-8"?>
<svg width="24px" height="18px" viewBox="0 0 24 18" version="1.1" xmlns="http://www.w3.org/2000/svg" xmlns:xlink="http://www.w3.org/1999/xlink">
    <title>ix-disc</title>
    <g id="Page-1" stroke="none" stroke-width="1" fill="none" fill-rule="evenodd">
        <path d="M19.6257671,1.50749593 C18.1260406,0.803249832 16.522462,0.291433064 14.8459646,0 C14.6400706,0.373606796 14.3995274,0.876116066 14.2336816,1.27586036 C12.4515219,1.00686729 10.6857497,1.00686729 8.93636521,1.27586036 C8.77055114,0.876116066 8.52454543,0.373606796 8.31680941,0 C6.63850172,0.291433064 5.03308109,0.805130456 3.53335462,1.5112253 C0.508392798,6.09902497 -0.31162462,10.5728715 0.0983848827,14.9831913 C2.10469858,16.4869259 4.04905828,17.4003995 5.96060453,17.9981512 C6.43257596,17.346212 6.85351058,16.6531859 7.21613556,15.9228023 C6.52550298,15.6594192 5.86402522,15.3343899 5.23900686,14.9570537 C5.40482092,14.8337613 5.56701445,14.7048588 5.72371367,14.572227 C9.53588104,16.3617847 13.6778981,16.3617847 17.4445229,14.572227 C17.6030642,14.7048588 17.7652259,14.8337613 17.9292297,14.9570537 C17.3023694,15.3362387 16.6390813,15.661268 15.9484487,15.9246829 C16.3110737,16.6531859 16.730198,17.3480927 17.2039798,18 C19.117368,17.4022483 21.0635317,16.4888065 23.0698469,14.9831913 C23.5509332,9.87050603 22.2480177,5.43774636 19.6257671,1.50749593 Z M7.73549151,12.2708843 C6.5911172,12.2708843 5.65263689,11.1986414 5.65263689,9.89291418 C5.65263689,8.58718695 6.57107723,7.5130953 7.73549151,7.5130953 C8.89993756,7.5130953 9.83838613,8.58530633 9.81834617,9.89291418 C9.82015637,11.1986414 8.89993756,12.2708843 7.73549151,12.2708843 Z M15.432745,12.2708843 C14.2883707,12.2708843 13.3498904,11.1986414 13.3498904,9.89291418 C13.3498904,8.58718695 14.268299,7.5130953 15.432745,7.5130953 C16.5971594,7.5130953 17.5356397,8.58530633 17.5155997,9.89291418 C17.5155997,11.1986414 16.5971594,12.2708843 15.432745,12.2708843 Z" id="ix-disc" fill="#FFFFFF" fill-rule="nonzero"></path>
    </g>
</svg>